HIERARCHY
ROOT Hips
{
	OFFSET 0.000000 0.000000 0.000000
	CHANNELS 6 Xposition Yposition Zposition Zrotation Yrotation Xrotation 
	JOINT LeftUpLeg_virtual
	{
		OFFSET 0.000000 0.000000 0.000000
		CHANNELS 3 Zrotation Yrotation Xrotation
		JOINT LeftUpLeg
		{
			OFFSET 8.479694 -4.795517 -0.379053
			CHANNELS 3 Zrotation Yrotation Xrotation
			JOINT LeftLeg
			{
				OFFSET 0.485052 -32.551468 0.112863
				CHANNELS 3 Zrotation Yrotation Xrotation
				JOINT LeftFoot
				{
					OFFSET 0.438033 -32.635670 -3.012641
					CHANNELS 3 Zrotation Yrotation Xrotation
					JOINT LeftToeBase
					{
						OFFSET 0.970169 -13.225353 11.864223
						CHANNELS 3 Zrotation Yrotation Xrotation
						End Site
						{
							OFFSET 0.000000 0.000000 0.000000
						}
					}
				}
			}
		}
	}
	JOINT RightUpLeg_virtual
	{
		OFFSET 0.000000 0.000000 0.000000
		CHANNELS 3 Zrotation Yrotation Xrotation
		JOINT RightUpLeg
		{
			OFFSET -8.479694 -4.795517 -0.379053
			CHANNELS 3 Zrotation Yrotation Xrotation
			JOINT RightLeg
			{
				OFFSET -0.484100 -32.551483 0.112903
				CHANNELS 3 Zrotation Yrotation Xrotation
				JOINT RightFoot
				{
					OFFSET -0.438985 -32.635651 -3.012681
					CHANNELS 3 Zrotation Yrotation Xrotation
					JOINT RightToeBase
					{
						OFFSET -0.970169 -13.225354 11.864223
						CHANNELS 3 Zrotation Yrotation Xrotation
						End Site
						{
							OFFSET 0.000000 0.000000 0.000000
						}
					}
				}
			}
		}
	}
	JOINT Spine_virtual
	{
		OFFSET 0.000000 0.000000 0.000000
		CHANNELS 3 Zrotation Yrotation Xrotation
		JOINT Spine
		{
			OFFSET 0.000000 7.722015 1.166203
			CHANNELS 3 Zrotation Yrotation Xrotation
			JOINT Spine1
			{
				OFFSET 0.000000 12.024086 0.248766
				CHANNELS 3 Zrotation Yrotation Xrotation
				JOINT Spine2
				{
					OFFSET -0.000000 11.503036 -0.491240
					CHANNELS 3 Zrotation Yrotation Xrotation
					JOINT Neck_virtual
					{
						OFFSET 0.000000 0.000000 0.000000
						CHANNELS 3 Zrotation Yrotation Xrotation
						JOINT Neck
						{
							OFFSET 0.000000 18.430687 -3.123054
							CHANNELS 3 Zrotation Yrotation Xrotation
							JOINT Head
							{
								OFFSET -0.000000 9.051071 1.034021
								CHANNELS 3 Zrotation Yrotation Xrotation
								End Site
								{
									OFFSET 0.000000 0.000000 0.000000
								}
							}
						}
					}
					JOINT LeftShoulder_virtual
					{
						OFFSET 0.000000 0.000000 0.000000
						CHANNELS 3 Zrotation Yrotation Xrotation
						JOINT LeftShoulder
						{
							OFFSET 6.197824 13.665230 -4.064723
							CHANNELS 3 Zrotation Yrotation Xrotation
							JOINT LeftArm
							{
								OFFSET 7.778132 -0.187073 -1.709282
								CHANNELS 3 Zrotation Yrotation Xrotation
								JOINT LeftForeArm
								{
									OFFSET 21.954697 0.000000 -2.041093
									CHANNELS 3 Zrotation Yrotation Xrotation
									JOINT LeftHand
									{
										OFFSET 22.992908 0.000000 -0.870901
										CHANNELS 3 Zrotation Yrotation Xrotation
										End Site
										{
											OFFSET 0.000000 0.000000 0.000000
										}
									}
								}
							}
						}
					}
					JOINT RightShoulder_virtual
					{
						OFFSET 0.000000 0.000000 0.000000
						CHANNELS 3 Zrotation Yrotation Xrotation
						JOINT RightShoulder
						{
							OFFSET -6.197824 13.665230 -4.064723
							CHANNELS 3 Zrotation Yrotation Xrotation
							JOINT RightArm
							{
								OFFSET -7.778132 -0.187073 -1.709282
								CHANNELS 3 Zrotation Yrotation Xrotation
								JOINT RightForeArm
								{
									OFFSET -21.954697 0.000000 -2.041093
									CHANNELS 3 Zrotation Yrotation Xrotation
									JOINT RightHand
									{
										OFFSET -22.992908 0.000000 -0.870901
										CHANNELS 3 Zrotation Yrotation Xrotation
										End Site
										{
											OFFSET 0.000000 0.000000 0.000000
										}
									}
								}
							}
						}
					}
				}
			}
		}
	}
}
MOTION
Frames: 4
Frame Time: 0.033333
4.046103 81.909325 61.887978 179.990251 1.990592 -179.890708 -5.938114 -0.492597 10.596449 2.167551 -3.477618 -23.940812 10.139921 7.348460 30.171811 -2.873804 -5.186920 -7.214198 0.000000 0.000000 0.000000 -1.410948 -0.304007 9.061434 -3.020222 2.405908 -18.472023 -1.610940 2.643299 26.665716 6.085514 6.943455 -7.967506 0.000000 0.000000 0.000000 1.145226 1.959734 -1.761173 -4.821254 3.134788 -1.144070 -0.787471 -2.884681 3.899345 0.026460 0.036681 0.007187 -1.366026 -1.627694 5.183157 0.995871 -2.821626 -12.105389 0.000000 0.000000 0.000000 0.111094 -0.765156 2.402440 15.154687 5.816492 -4.039255 1.374281 -2.141520 -51.500081 -3.080468 -33.359873 -5.507137 0.000000 0.000000 0.000000 -3.721126 0.286443 2.053750 4.783236 -17.829232 -6.586601 5.887696 -6.268520 -40.295097 -0.392778 32.738705 -4.529731 0.000000 0.000000 0.000000 
4.064527 81.920967 61.901134 179.908808 2.088694 -179.823609 -5.937933 -0.517551 10.746713 2.110958 -3.537853 -23.771789 10.300616 7.023233 30.368141 -3.353222 -5.662133 -6.831049 0.000000 0.000000 0.000000 -1.490796 -0.246010 9.057722 -2.989616 2.287467 -18.459964 -1.594667 2.389317 26.854231 6.160019 7.014045 -7.929914 0.000000 0.000000 0.000000 1.087972 1.984970 -1.770004 -4.872944 3.139857 -1.139126 -0.811698 -2.856221 3.907685 -0.001924 0.058768 0.027326 -1.323408 -1.627324 5.262553 0.943788 -2.666469 -12.040060 0.000000 0.000000 0.000000 0.182500 -0.768769 2.415781 15.069861 5.781153 -4.048358 1.384024 -2.158195 -51.486854 -3.080043 -33.307718 -5.492488 0.000000 0.000000 0.000000 -3.677589 0.381263 2.072066 4.803020 -17.917965 -6.699883 5.924341 -6.342963 -40.321161 -0.303206 32.756720 -4.415305 0.000000 0.000000 0.000000 
4.086170 81.926453 61.918480 179.891145 1.963090 -179.823964 -5.979259 -0.585664 10.744970 2.143379 -3.615800 -23.782314 10.284092 6.968068 30.363985 -3.368810 -5.653745 -6.795284 0.000000 0.000000 0.000000 -1.502897 -0.344866 9.060353 -3.015104 2.213039 -18.457826 -1.578152 2.360191 26.788897 6.195882 7.033473 -7.905826 0.000000 0.000000 0.000000 1.091642 1.959818 -1.781480 -4.886589 3.096072 -1.123531 -0.814018 -2.891716 3.925740 -0.007046 0.016262 0.090990 -1.277820 -1.578689 5.174687 1.013949 -3.022161 -12.119860 0.000000 0.000000 0.000000 0.195404 -0.733577 2.393520 15.095095 5.840751 -4.061187 1.301580 -2.331644 -51.452665 -3.047719 -33.356636 -5.560667 0.000000 0.000000 0.000000 -3.637582 0.399274 2.000445 4.833413 -17.941669 -6.770987 5.988253 -6.361984 -40.291013 -0.303718 32.772067 -4.410696 0.000000 0.000000 0.000000 
4.107174 81.928268 61.938255 179.990292 1.999024 -179.823240 -5.874625 -0.551793 10.731938 2.053575 -3.520563 -23.792185 10.490122 6.949922 30.352476 -3.487768 -5.719574 -6.768854 0.000000 0.000000 0.000000 -1.466944 -0.317407 9.051220 -2.945044 2.316028 -18.465126 -1.611015 2.210777 26.799555 6.209340 6.988800 -7.830341 0.000000 0.000000 0.000000 1.158006 1.949016 -1.777476 -4.852189 3.088347 -1.085696 -0.769764 -2.898623 3.927230 0.003582 0.018330 0.058519 -1.329247 -1.629009 5.192119 0.978616 -2.679334 -12.106840 0.000000 0.000000 0.000000 0.154988 -0.734907 2.420260 15.043256 5.776203 -4.013149 1.209492 -2.311469 -51.299464 -2.989986 -33.389790 -5.441122 0.000000 0.000000 0.000000 -3.697116 0.405102 2.017742 4.856203 -17.990102 -6.829531 6.066348 -6.476418 -40.507984 -0.167942 32.758147 -4.281760 0.000000 0.000000 0.000000 
